<svg version="1.1" id="Layer_1" xmlns="http://www.w3.org/2000/svg" xmlns:xlink="http://www.w3.org/1999/xlink" x="0px" y="0px"
	 width="100%" viewBox="0 0 1658 602" enable-background="new 0 0 1658 602" xml:space="preserve">
<path fill="#010101" opacity="1.000000" stroke="none" 
	d="
M1027.000000,603.000000 
	C684.704468,603.000000 342.908875,603.000000 1.056663,603.000000 
	C1.056663,402.393311 1.056663,201.786575 1.056663,1.089925 
	C553.545654,1.089925 1106.091309,1.089925 1658.818481,1.089925 
	C1658.818481,201.666534 1658.818481,402.333252 1658.818481,603.000000 
	C1448.453125,603.000000 1237.976562,603.000000 1027.000000,603.000000 
M1026.000000,261.000000 
	C1026.000000,261.000000 1026.004272,261.006714 1026.676147,260.747833 
	C1030.520386,251.792343 1034.364624,242.836838 1038.541748,233.105804 
	C1041.252075,239.462387 1043.329468,244.517670 1045.562988,249.503021 
	C1046.871094,252.422775 1048.427979,255.231003 1050.037231,258.854126 
	C1053.884033,268.288879 1057.813599,277.690918 1061.555664,287.166992 
	C1065.887939,298.137543 1069.893433,309.239655 1074.370483,320.149353 
	C1076.277710,324.797119 1077.252686,330.808044 1084.014648,331.204254 
	C1089.157471,331.505585 1094.343628,331.578827 1099.482544,331.277618 
	C1103.796265,331.024780 1105.294067,328.448090 1104.156006,324.204742 
	C1103.314453,321.067047 1102.646484,317.842896 1101.419189,314.855225 
	C1094.363159,297.678589 1087.074707,280.597382 1080.036743,263.413483 
	C1072.547485,245.127869 1065.472046,226.670120 1057.792236,208.466248 
	C1052.374268,195.623749 1040.085815,192.168808 1027.995972,198.038635 
	C1017.838196,202.970444 1016.367981,213.654160 1012.193970,223.049500 
	C1011.678894,223.470825 1010.906921,223.788055 1010.687622,224.329239 
	C1007.809204,231.432129 1005.009583,238.566940 1002.188599,245.693146 
	C996.428650,260.243774 990.664612,274.792786 984.908447,289.344849 
	C980.433899,300.656738 975.859497,311.930908 971.549133,323.305054 
	C969.632080,328.363678 972.084595,331.811615 977.352600,331.919830 
	C982.678040,332.029205 988.008667,331.872345 993.334717,331.965820 
	C996.604126,332.023193 998.964478,330.875214 1000.239990,327.752075 
	C1002.136414,323.108887 1004.299744,318.561157 1005.944885,313.832062 
	C1008.720764,305.852539 1008.587280,305.840576 1016.969543,305.872040 
	C1025.294067,305.903290 1033.620117,305.939178 1041.943237,305.814972 
	C1048.197388,305.721680 1051.609985,300.202637 1049.192871,294.448151 
	C1047.933472,291.449921 1047.058472,288.261841 1045.545044,285.405853 
	C1043.692627,281.910339 1043.153320,276.503174 1035.973267,278.100098 
	C1030.787720,278.092987 1025.602051,278.085876 1020.403076,277.139496 
	C1022.270203,271.760437 1024.137329,266.381378 1026.000000,261.000000 
M172.585571,167.103729 
	C186.309891,177.434814 201.435562,178.486633 217.167694,173.192352 
	C221.652832,171.682999 225.685944,168.654068 229.715622,166.001846 
	C240.505493,158.900253 246.807953,148.974808 247.969803,135.999634 
	C247.969803,135.999634 248.000443,136.002563 248.936935,135.959427 
	C273.035370,135.953537 297.134277,136.018036 321.231750,135.864532 
	C324.771698,135.841980 326.740051,137.062607 328.700195,139.974136 
	C338.002350,153.791245 347.553314,167.441879 357.121735,181.077377 
	C358.434448,182.948044 360.341614,184.401550 362.360565,186.741577 
	C364.594086,187.154572 366.827271,187.926086 369.061218,187.928391 
	C432.511688,187.993805 495.962189,187.983963 559.412720,187.978806 
	C565.365112,187.978317 569.203979,184.676086 569.204895,179.618729 
	C569.205994,173.604980 567.045349,171.846863 559.843079,171.848785 
	C499.390350,171.864899 438.936768,171.723892 378.486115,172.082291 
	C371.979248,172.120865 369.015594,169.012863 366.063995,164.574707 
	C365.341644,163.488586 364.816040,162.269516 364.073669,161.199203 
	C355.998291,149.556534 347.654907,138.089706 339.917542,126.227325 
	C336.590271,121.126144 332.924866,118.563538 326.133667,120.118187 
	C325.126923,120.151886 324.120148,120.185577 322.211365,119.895767 
	C317.105713,119.998573 312.000061,120.101379 305.974182,120.116936 
	C291.684143,120.145996 277.394073,120.175064 262.206879,119.903320 
	C258.437561,119.998863 254.668213,120.094414 250.183380,120.086967 
	C249.464066,120.037140 248.744766,119.987312 248.081024,119.078827 
	C245.331757,101.217712 234.835022,89.020355 218.722748,82.378967 
	C200.635010,74.923309 183.047134,78.011230 168.219650,90.599388 
	C158.574005,98.788307 151.663727,109.367714 152.086411,123.534294 
	C152.086411,123.534294 152.040680,123.994240 151.579025,124.532478 
	C151.659119,127.291084 151.784210,130.049225 151.811813,132.808365 
	C151.959488,147.560165 160.256790,157.913223 170.425446,167.233505 
	C170.628815,167.419907 171.453140,166.928802 172.585571,167.103729 
M720.047058,417.758698 
	C722.208679,427.374115 727.831848,432.026947 738.007202,431.934326 
	C750.548767,431.934326 763.090271,431.934326 775.417236,431.934326 
	C775.417236,425.519684 775.417236,419.976898 775.417236,414.063171 
	C764.204346,414.063171 753.583374,414.063171 742.473694,413.527832 
	C741.585571,413.120148 740.687378,412.343140 739.811096,412.367126 
	C735.436035,412.487122 735.709534,409.220032 735.602295,406.532166 
	C735.444824,402.585907 738.642883,403.825378 740.670837,403.794098 
	C748.486633,403.673584 756.305542,403.768372 764.123047,403.734009 
	C776.595642,403.679138 776.570557,405.859497 776.389954,390.772430 
	C776.348877,387.340118 775.177185,385.996094 771.784363,386.013824 
	C757.147522,386.090271 742.509277,385.967163 727.873230,386.102966 
	C722.630188,386.151642 718.191772,390.201813 718.292419,395.391266 
	C718.432129,402.590546 719.400085,409.773804 720.047058,417.758698 
M1181.985840,224.949203 
	C1182.005737,258.281219 1182.025513,291.613251 1181.738525,325.520782 
	C1181.379028,329.504700 1183.555664,331.471680 1187.198975,331.632324 
	C1192.349854,331.859467 1197.572021,332.123169 1202.651367,331.481689 
	C1204.594482,331.236237 1207.284302,328.814667 1207.784668,326.901154 
	C1208.853760,322.813141 1209.001221,318.411041 1209.024780,314.134857 
	C1209.152954,290.826691 1209.130737,267.517700 1209.156128,244.209000 
	C1209.163452,237.611908 1209.157227,231.014816 1209.157227,224.151978 
	C1211.216064,224.038620 1212.683105,223.890198 1214.150391,223.887878 
	C1224.972534,223.870789 1235.794922,223.925751 1246.616699,223.868774 
	C1252.594849,223.837296 1253.914185,222.513351 1254.038086,216.523407 
	C1254.131104,212.030258 1254.002319,207.532944 1254.055664,203.038467 
	C1254.111572,198.336548 1251.800415,196.095383 1247.158203,196.101959 
	C1241.996826,196.109283 1236.835571,196.092819 1231.674194,196.091415 
	C1202.537720,196.083496 1173.400513,196.177536 1144.265259,195.986221 
	C1138.349854,195.947388 1135.586182,198.479294 1135.864502,204.137756 
	C1136.044067,207.788437 1135.813843,211.458008 1135.811890,215.119141 
	C1135.807861,222.290588 1137.341797,223.877991 1144.453369,223.913467 
	C1156.938965,223.975739 1169.424805,223.985291 1181.985840,224.949203 
M801.965515,432.030701 
	C812.959412,431.972900 823.953247,431.915100 835.760864,432.037048 
	C848.955627,430.702576 853.717529,423.618103 855.525513,410.192627 
	C856.869080,400.215363 856.262878,389.881042 855.652466,379.758423 
	C854.843994,366.353058 846.806946,358.345123 834.111023,357.916901 
	C822.961914,357.540863 811.789246,357.753143 800.628723,357.868927 
	C795.321106,357.923981 792.094482,361.199585 792.070129,366.556122 
	C791.983704,385.548523 791.963013,404.541840 792.055359,423.534119 
	C792.083679,429.355957 795.050293,431.916718 801.965515,432.030701 
M633.753052,431.941315 
	C634.531982,430.558990 635.919617,429.204681 635.984619,427.789551 
	C636.267456,421.637939 636.183105,415.468658 636.197937,409.305725 
	C636.216797,401.475555 636.202515,393.645325 636.202515,385.815125 
	C641.433105,396.231445 645.512268,406.818939 650.145569,417.158173 
	C651.335510,419.813507 653.876526,422.772461 656.478882,423.721100 
	C665.523071,427.018005 672.519714,423.538269 675.821716,413.908417 
	C679.012024,404.604401 683.108215,395.611053 687.364258,385.104279 
	C687.714478,387.425812 687.929810,388.195496 687.931824,388.965729 
	C687.965088,401.460022 687.898254,413.955322 688.054688,426.447876 
	C688.080933,428.544861 686.832581,431.886200 691.477234,432.126617 
	C693.608032,432.104492 695.754761,431.906158 697.866333,432.096863 
	C702.277832,432.495331 703.811096,430.343964 703.796387,426.229340 
	C703.727844,407.083130 703.981506,387.932037 703.613770,368.792419 
	C703.457520,360.660828 700.057312,357.306702 692.551331,357.986237 
	C690.404480,358.180603 688.221130,358.104340 686.061890,357.999237 
	C682.175110,357.809998 679.770203,360.048035 678.331787,363.160034 
	C676.620361,366.862976 675.534973,370.849457 674.003235,374.642365 
	C670.471619,383.387299 666.834290,392.089539 663.029297,401.319855 
	C661.789185,400.207947 660.596985,399.640411 660.237549,398.740356 
	C655.922485,387.934814 651.571106,377.138458 647.570068,366.214874 
	C645.361450,360.184662 642.947876,358.084839 636.384094,358.034882 
	C635.052246,358.024750 633.720337,358.012360 632.388489,358.010925 
	C623.057922,358.000885 621.639648,359.227539 620.503967,368.471100 
	C620.322205,369.950134 620.382690,371.462555 620.381348,372.959595 
	C620.367126,388.609833 620.414185,404.260345 620.341187,419.910278 
	C620.276367,433.801178 620.466187,432.298584 633.753052,431.941315 
M564.665955,260.046875 
	C569.746643,259.154083 569.445862,255.047302 569.235474,251.560150 
	C568.955017,246.913086 565.589722,244.612076 560.179077,244.612289 
	C500.067474,244.614761 439.955841,244.619034 379.844238,244.622696 
	C373.376526,244.623093 366.908844,244.622742 361.196472,244.622742 
	C359.627106,240.095459 358.669220,236.092529 356.914520,232.476227 
	C347.314545,212.691315 328.263397,201.510239 305.027527,204.431396 
	C293.729797,205.851730 283.816986,211.226257 276.571564,219.214172 
	C263.418274,233.715317 259.969971,251.376846 266.406372,270.059052 
	C271.525391,284.917419 282.378113,295.146210 297.263306,299.501556 
	C316.706329,305.190552 334.569000,301.431213 348.680359,285.896698 
	C355.246796,278.667999 360.343231,270.497040 361.072449,260.021606 
	C416.201202,260.031921 471.329926,260.053680 526.458679,260.043823 
	C538.944763,260.041565 551.430847,259.929474 564.665955,260.046875 
M1384.567993,275.577332 
	C1388.788696,269.260345 1387.329102,262.303497 1386.636597,255.513947 
	C1386.211426,251.343536 1383.522827,249.972748 1379.280029,250.002838 
	C1353.308594,250.187088 1327.335327,250.084656 1301.362915,250.169876 
	C1289.742065,250.208008 1284.912354,256.952667 1284.566650,266.440765 
	C1284.077759,279.855743 1284.239868,293.216858 1287.973877,306.370941 
	C1291.773438,319.756226 1302.227905,329.196991 1315.794067,329.759308 
	C1332.737427,330.461670 1349.712280,330.474762 1366.674805,330.616089 
	C1372.296387,330.662933 1377.975708,330.546051 1383.513184,329.725311 
	C1385.141968,329.483887 1387.443848,326.660431 1387.595703,324.864746 
	C1388.126709,318.580536 1387.977295,312.225647 1387.837158,305.903107 
	C1387.757812,302.326447 1385.983521,300.035065 1382.000000,300.108002 
	C1378.837891,300.165894 1375.673584,300.091309 1372.510254,300.089417 
	C1356.860107,300.080170 1341.210083,300.055328 1325.559937,300.078400 
	C1318.475586,300.088837 1311.207275,295.780182 1312.322632,288.624268 
	C1312.322632,285.125244 1312.322632,281.626221 1312.322632,277.975800 
	C1314.787354,277.975800 1316.436890,277.975800 1318.086304,277.975769 
	C1338.302124,277.975464 1358.518188,278.027740 1378.732910,277.880951 
	C1380.463867,277.868378 1382.185181,276.532623 1384.567993,275.577332 
M235.081161,416.071747 
	C232.201279,415.512543 229.236664,414.220490 226.458542,414.541626 
	C220.008408,415.287262 213.558044,416.464111 207.271378,418.096283 
	C195.902802,421.047791 188.011246,428.739014 182.121521,438.463287 
	C176.084900,448.430054 174.398849,459.394623 175.903488,471.757935 
	C177.057144,475.970367 177.710983,480.403900 179.458572,484.353546 
	C184.613632,496.004242 193.626404,503.503723 205.415833,508.329773 
	C222.282745,515.234375 237.719040,512.659668 252.496094,502.848206 
	C263.599609,495.475861 268.683075,484.185822 272.633972,471.807343 
	C274.469421,471.807343 276.283630,471.807068 278.097839,471.807373 
	C326.584656,471.815491 375.071686,471.754608 423.557953,471.919952 
	C429.550690,471.940369 433.723511,470.365448 436.791687,464.853546 
	C444.303284,451.359192 452.158508,438.050781 460.132660,424.822540 
	C462.537598,420.832977 464.773285,417.226257 471.204468,417.348450 
	C500.685242,417.908844 530.182251,417.625549 559.673462,417.608246 
	C561.301697,417.607300 563.057983,417.604401 564.533142,417.031677 
	C568.494507,415.493744 570.631897,411.052917 569.508179,406.340576 
	C568.476257,402.012970 565.540833,399.981873 560.919861,399.992706 
	C527.928894,400.070068 494.936981,400.154785 461.947449,399.930511 
	C456.760223,399.895264 453.542419,401.680847 451.030701,405.964783 
	C442.414673,420.660248 433.447449,435.155609 425.128479,450.015228 
	C423.211121,453.440063 421.331757,454.189758 417.849091,454.183197 
	C370.695587,454.094299 323.541809,454.130768 276.388123,454.123993 
	C275.081818,454.123810 273.775543,453.987640 272.592987,453.921753 
	C271.672119,451.369934 270.775513,449.091766 270.023529,446.766846 
	C266.188904,434.911255 258.615631,426.064819 247.818237,420.153687 
	C244.194855,418.170044 239.878586,417.452087 235.081161,416.071747 
M360.695953,383.737640 
	C362.549133,381.979706 364.823334,380.497437 366.184906,378.417694 
	C373.310089,367.534058 380.338196,356.580414 387.080811,345.457550 
	C388.708496,342.772491 390.401794,341.866760 393.370117,341.900391 
	C405.366333,342.036285 417.364807,341.985596 429.362427,341.988373 
	C472.687286,341.998444 516.012207,341.966003 559.336792,342.074432 
	C562.966064,342.083527 565.804260,341.230621 567.689514,338.109833 
	C570.361389,333.686768 567.498047,326.078674 559.598267,326.138947 
	C512.609863,326.497437 465.617310,326.316559 418.626160,326.319000 
	C407.628296,326.319580 396.622742,326.109894 385.638214,326.495117 
	C383.064819,326.585358 379.552490,328.012634 378.195282,330.000977 
	C370.728088,340.940826 363.463745,352.054962 356.866791,363.532867 
	C354.666687,367.360840 352.505859,368.506012 348.448975,368.492493 
	C316.122467,368.384674 283.794952,368.367004 251.469070,368.552795 
	C247.345551,368.576508 245.460571,367.044922 243.665787,363.522797 
	C236.550079,349.558624 229.170181,335.725006 221.634384,321.982147 
	C219.936188,318.885193 218.218399,315.416626 213.428833,315.480988 
	C196.602005,315.707184 179.768311,315.499664 162.944656,315.832733 
	C158.615128,315.918457 157.106735,313.999207 156.135834,310.390900 
	C152.666061,297.495972 145.234268,287.585419 133.458649,281.128845 
	C118.971634,273.185608 104.405792,272.682739 89.142998,279.556183 
	C63.975277,290.890106 55.861488,318.842316 64.762535,341.394775 
	C74.242798,365.414825 100.977798,377.228882 125.624718,368.658386 
	C141.429062,363.162689 151.579208,352.028076 156.083298,335.829590 
	C156.807587,333.224762 157.645569,330.972137 161.295853,331.019775 
	C175.620972,331.206879 189.952484,330.984100 204.273849,331.284576 
	C206.260925,331.326263 209.054703,332.960907 210.029907,334.678589 
	C216.268906,345.667542 221.910278,356.995911 228.152710,367.982819 
	C231.313705,373.546326 235.320312,378.629364 239.389832,384.586182 
	C241.110443,385.066681 242.830124,385.962708 244.551804,385.966553 
	C281.331207,386.048889 318.110901,386.058929 354.890106,385.945038 
	C356.608185,385.939728 358.322296,384.654205 360.695953,383.737640 
M1523.542969,316.131836 
	C1526.261230,308.497925 1530.879883,300.972809 1531.324219,293.208740 
	C1532.442505,273.671692 1532.376953,253.991577 1531.392822,234.438919 
	C1530.837158,223.399689 1526.834717,212.652649 1517.621826,205.343094 
	C1508.890381,198.415421 1498.081787,196.865982 1487.418701,196.546432 
	C1470.115356,196.027893 1452.765015,195.883865 1435.475220,196.584991 
	C1426.098999,196.965225 1418.419800,200.738220 1418.400269,213.995087 
	C1418.351562,247.133286 1418.374634,280.271606 1418.334839,313.409821 
	C1418.321167,324.785278 1424.161255,331.298676 1435.308350,331.260040 
	C1455.266602,331.190887 1475.224609,330.786743 1495.180298,330.397156 
	C1506.563232,330.174896 1515.945557,325.585266 1523.542969,316.131836 
M825.835327,273.500092 
	C825.867676,287.161469 825.916931,300.822876 825.928223,314.484253 
	C825.942505,331.800018 827.242859,332.972900 844.733704,331.270447 
	C849.929993,330.764679 851.755859,328.839264 851.774841,323.621704 
	C851.818970,311.459320 851.809875,299.296722 851.820923,287.134216 
	C851.823853,283.854950 851.821411,280.575684 851.821411,276.912415 
	C862.232666,276.912415 872.017517,276.783722 881.790833,277.061584 
	C883.139465,277.099915 884.875000,278.899689 885.678406,280.312225 
	C891.947449,291.334351 897.763245,302.621002 904.233215,313.520752 
	C915.690430,332.822327 909.645203,331.433929 932.033325,331.463623 
	C932.199829,331.463867 932.366394,331.456726 932.532837,331.450317 
	C939.798767,331.170685 942.659180,326.220123 938.987122,319.942078 
	C930.433716,305.318390 921.758179,290.766113 913.090454,276.114471 
	C913.727661,275.675140 914.228699,275.046204 914.793152,274.982971 
	C923.208984,274.040039 929.128174,269.686035 931.947510,261.747528 
	C933.845032,256.404663 935.441711,250.880173 936.432373,245.305344 
	C938.625977,232.960068 936.777710,220.929855 931.219666,209.787216 
	C926.035278,199.393570 915.675110,196.883484 905.487427,196.627106 
	C881.344116,196.019516 857.174866,196.372208 833.016724,196.480469 
	C827.894958,196.503403 826.084473,198.667587 826.000366,203.888214 
	C825.935974,207.885834 825.943420,211.885666 825.987915,215.883743 
	C826.046448,221.133408 827.743103,222.987289 832.949280,223.475342 
	C834.436951,223.614807 835.946167,223.536667 837.445496,223.536926 
	C858.271973,223.540421 879.098816,223.613083 899.924500,223.484161 
	C904.518127,223.455734 908.633972,224.615143 909.452148,229.258774 
	C910.328003,234.229675 910.291809,239.571609 909.470703,244.556747 
	C908.929077,247.845367 906.232971,250.432739 901.920166,250.199036 
	C897.104309,249.938065 892.261047,250.204819 887.429688,250.207108 
	C869.435608,250.215637 851.441528,250.178925 833.447571,250.227554 
	C827.707153,250.243073 826.036011,251.887711 825.908875,257.507416 
	C825.795837,262.502960 825.853455,267.502411 825.835327,273.500092 
M794.433289,233.501251 
	C794.432983,226.177353 794.385254,218.853104 794.442322,211.529648 
	C794.557007,196.821930 795.655029,196.190796 779.177917,196.359116 
	C769.843018,196.454483 768.278259,198.017395 768.278320,207.459473 
	C768.278564,244.245453 768.276917,281.031433 768.276306,317.817413 
	C768.276306,319.648376 768.222412,321.481506 768.291382,323.309937 
	C768.511169,329.136749 770.691589,331.314880 776.579224,331.476135 
	C779.737915,331.562622 782.902466,331.503296 786.062927,331.440613 
	C792.801819,331.306976 794.454407,329.589966 794.451843,322.887939 
	C794.440613,293.425903 794.436279,263.963867 794.433289,233.501251 
M1297.543579,196.217789 
	C1284.878540,195.331879 1284.049072,198.652405 1284.331543,209.424454 
	C1284.353394,210.256424 1284.336792,211.089401 1284.338013,211.921921 
	C1284.351440,221.448944 1285.983643,223.056290 1295.643433,223.089340 
	C1322.446411,223.181030 1349.249390,223.283859 1376.052368,223.357651 
	C1378.043823,223.363129 1380.053467,223.305267 1382.023804,223.044678 
	C1385.846069,222.539154 1387.950195,220.463089 1387.846069,216.384369 
	C1387.752563,212.724136 1387.825073,209.059067 1387.855347,205.396393 
	C1387.918701,197.743591 1386.453613,196.220474 1378.948608,196.219986 
	C1352.141602,196.218277 1325.334595,196.219803 1297.543579,196.217789 
M947.450806,398.401642 
	C950.503967,406.132507 953.466492,413.900696 956.632080,421.585236 
	C961.113770,432.465088 961.175842,432.359863 972.392517,432.087463 
	C976.645203,431.984161 977.692993,430.416504 975.979126,426.520905 
	C973.220032,420.249695 970.579407,413.922607 968.048096,407.555756 
	C962.548828,393.723969 957.254028,379.810059 951.658081,366.017975 
	C949.512756,360.730560 945.942871,356.525208 939.545715,356.980011 
	C933.406128,357.416534 929.284912,360.513367 926.937073,366.645874 
	C920.074951,384.569000 912.713745,402.300385 905.652832,420.148346 
	C900.842468,432.307617 900.920227,432.248749 913.980957,432.125732 
	C917.562012,432.091949 919.153870,430.872711 920.083679,427.257935 
	C922.273987,418.743225 923.649353,417.970795 932.424377,417.969116 
	C935.255005,417.968567 938.088928,418.031219 940.915405,417.916626 
	C945.157104,417.744629 946.851379,415.307831 945.606567,411.352936 
	C942.909424,402.783600 942.547852,402.516449 933.323547,402.067810 
	C932.707825,402.037903 932.100830,401.830566 930.626648,401.529510 
	C933.394958,394.183105 936.041016,387.161163 938.687134,380.139191 
	C939.088196,380.042847 939.489258,379.946533 939.890320,379.850220 
	C942.313660,385.790222 944.737000,391.730225 947.450806,398.401642 
M692.499939,196.081314 
	C673.011536,196.081345 653.523010,196.047043 634.034790,196.102463 
	C628.238098,196.118942 626.189575,198.159561 626.012939,203.861908 
	C625.899475,207.522812 625.953430,211.190109 625.985291,214.854065 
	C626.048828,222.148422 627.819580,223.882217 635.245972,223.892609 
	C657.398987,223.923630 679.552551,224.023590 701.704407,223.875229 
	C705.607544,223.849091 708.801086,225.694748 709.322266,228.661285 
	C710.215759,233.748108 710.106323,239.216110 709.268127,244.335815 
	C708.623779,248.271271 705.371216,250.059891 700.860229,250.018967 
	C678.875305,249.819382 656.885681,250.097641 634.901794,249.848312 
	C628.074036,249.770905 625.768616,252.323975 625.920837,258.952667 
	C626.119690,267.609528 625.965210,276.274475 625.965942,284.935944 
	C625.966980,297.428436 625.931152,309.921143 625.987671,322.413391 
	C626.023865,330.402069 627.436096,331.791748 635.170898,331.834656 
	C638.335571,331.852234 641.500305,331.844360 644.665039,331.833313 
	C651.335449,331.810028 653.559509,329.740814 653.690430,322.923767 
	C653.837524,315.264648 653.736572,307.600708 653.739624,299.938873 
	C653.742493,292.667114 653.740234,285.395355 653.740234,277.686768 
	C655.956421,277.686768 657.582336,277.687866 659.208252,277.686584 
	C674.365356,277.674652 689.528198,277.910919 704.677612,277.563293 
	C714.875122,277.329315 725.082397,275.407074 730.896484,265.982513 
	C734.302002,260.462189 737.090454,253.739655 737.505249,247.384872 
	C738.155884,237.415771 737.544312,227.111282 735.649597,217.299850 
	C733.735596,207.388443 727.494934,199.713409 716.698303,198.011551 
	C709.053955,196.806595 701.238770,196.686127 692.499939,196.081314 
M871.626465,367.908478 
	C871.626465,389.091949 871.626465,410.275391 871.626465,431.761475 
	C876.839417,431.761475 881.272278,431.761475 886.056702,431.761475 
	C886.056702,407.136566 886.056702,382.710388 886.056702,358.340576 
	C880.920898,358.340576 876.655945,358.340576 872.213379,358.340576 
	C871.993469,361.448975 871.795959,364.241791 871.626465,367.908478 
M718.509094,367.340210 
	C719.290955,370.252716 719.075134,373.691681 723.791931,373.656281 
	C739.418579,373.539062 755.047546,373.743225 770.674683,373.659851 
	C775.640991,373.633392 777.530945,370.671143 777.208740,362.560455 
	C777.069275,359.049255 774.264221,357.841003 770.651611,357.877380 
	C756.022827,358.024719 741.391541,357.922028 726.761230,357.927826 
	C719.165466,357.930847 718.615295,358.516083 718.509094,367.340210 
z"/>
<path fill="#E4E4E9" opacity="1.000000" stroke="none" 
	d="
M238.944611,383.929626 
	C235.320312,378.629364 231.313705,373.546326 228.152710,367.982819 
	C221.910278,356.995911 216.268906,345.667542 210.029907,334.678589 
	C209.054703,332.960907 206.260925,331.326263 204.273849,331.284576 
	C189.952484,330.984100 175.620972,331.206879 161.295853,331.019775 
	C157.645569,330.972137 156.807587,333.224762 156.083298,335.829590 
	C151.579208,352.028076 141.429062,363.162689 125.624718,368.658386 
	C100.977798,377.228882 74.242798,365.414825 64.762535,341.394775 
	C55.861488,318.842316 63.975277,290.890106 89.142998,279.556183 
	C104.405792,272.682739 118.971634,273.185608 133.458649,281.128845 
	C145.234268,287.585419 152.666061,297.495972 156.135834,310.390900 
	C157.106735,313.999207 158.615128,315.918457 162.944656,315.832733 
	C179.768311,315.499664 196.602005,315.707184 213.428833,315.480988 
	C218.218399,315.416626 219.936188,318.885193 221.634384,321.982147 
	C229.170181,335.725006 236.550079,349.558624 243.665787,363.522797 
	C245.460571,367.044922 247.345551,368.576508 251.469070,368.552795 
	C283.794952,368.367004 316.122467,368.384674 348.448975,368.492493 
	C352.505859,368.506012 354.666687,367.360840 356.866791,363.532867 
	C363.463745,352.054962 370.728088,340.940826 378.195282,330.000977 
	C379.552490,328.012634 383.064819,326.585358 385.638214,326.495117 
	C396.622742,326.109894 407.628296,326.319580 418.626160,326.319000 
	C465.617310,326.316559 512.609863,326.497437 559.598267,326.138947 
	C567.498047,326.078674 570.361389,333.686768 567.689514,338.109833 
	C565.804260,341.230621 562.966064,342.083527 559.336792,342.074432 
	C516.012207,341.966003 472.687286,341.998444 429.362427,341.988373 
	C417.364807,341.985596 405.366333,342.036285 393.370117,341.900391 
	C390.401794,341.866760 388.708496,342.772491 387.080811,345.457550 
	C380.338196,356.580414 373.310089,367.534058 366.184906,378.417694 
	C364.823334,380.497437 362.549133,381.979706 359.900940,383.762573 
	C319.052155,383.834869 278.998383,383.882263 238.944611,383.929626 
M123.976776,294.205017 
	C122.006355,293.439362 120.094208,292.269012 118.055801,291.975494 
	C107.117874,290.400604 97.095360,291.711273 88.076393,299.333099 
	C79.557159,306.532562 74.292023,324.151581 78.586037,334.329041 
	C85.514915,350.751526 102.486671,360.813171 121.081909,354.094910 
	C132.074417,350.123444 139.537430,342.091095 141.655029,331.288605 
	C144.808090,315.204041 139.309570,303.447174 123.976776,294.205017 
z"/>
<path fill="#EEEEF1" opacity="1.000000" stroke="none" 
	d="
M1523.398193,316.476379 
	C1515.945557,325.585266 1506.563232,330.174896 1495.180298,330.397156 
	C1475.224609,330.786743 1455.266602,331.190887 1435.308350,331.260040 
	C1424.161255,331.298676 1418.321167,324.785278 1418.334839,313.409821 
	C1418.374634,280.271606 1418.351562,247.133286 1418.400269,213.995087 
	C1418.419800,200.738220 1426.098999,196.965225 1435.475220,196.584991 
	C1452.765015,195.883865 1470.115356,196.027893 1487.418701,196.546432 
	C1498.081787,196.865982 1508.890381,198.415421 1517.621826,205.343094 
	C1526.834717,212.652649 1530.837158,223.399689 1531.392822,234.438919 
	C1532.376953,253.991577 1532.442505,273.671692 1531.324219,293.208740 
	C1530.879883,300.972809 1526.261230,308.497925 1523.398193,316.476379 
M1444.145630,287.498291 
	C1444.145630,292.944427 1444.145630,298.390533 1444.145630,303.909302 
	C1445.484741,304.142517 1446.281128,304.402527 1447.077271,304.401917 
	C1461.556030,304.390808 1476.038818,304.127533 1490.512085,304.390198 
	C1500.156738,304.565216 1505.495605,297.338165 1505.782471,289.276611 
	C1506.385620,272.326080 1506.209595,255.332062 1505.803711,238.369049 
	C1505.638794,231.473526 1500.136353,223.129456 1490.936768,223.511780 
	C1479.142944,224.001953 1467.310181,223.558487 1455.494263,223.523300 
	C1451.883911,223.512558 1448.273560,223.521637 1444.145508,223.521637 
	C1444.145508,244.979553 1444.145508,265.739136 1444.145630,287.498291 
z"/>
<path fill="#F0F0F2" opacity="1.000000" stroke="none" 
	d="
M825.835571,273.000122 
	C825.853455,267.502411 825.795837,262.502960 825.908875,257.507416 
	C826.036011,251.887711 827.707153,250.243073 833.447571,250.227554 
	C851.441528,250.178925 869.435608,250.215637 887.429688,250.207108 
	C892.261047,250.204819 897.104309,249.938065 901.920166,250.199036 
	C906.232971,250.432739 908.929077,247.845367 909.470703,244.556747 
	C910.291809,239.571609 910.328003,234.229675 909.452148,229.258774 
	C908.633972,224.615143 904.518127,223.455734 899.924500,223.484161 
	C879.098816,223.613083 858.271973,223.540421 837.445496,223.536926 
	C835.946167,223.536667 834.436951,223.614807 832.949280,223.475342 
	C827.743103,222.987289 826.046448,221.133408 825.987915,215.883743 
	C825.943420,211.885666 825.935974,207.885834 826.000366,203.888214 
	C826.084473,198.667587 827.894958,196.503403 833.016724,196.480469 
	C857.174866,196.372208 881.344116,196.019516 905.487427,196.627106 
	C915.675110,196.883484 926.035278,199.393570 931.219666,209.787216 
	C936.777710,220.929855 938.625977,232.960068 936.432373,245.305344 
	C935.441711,250.880173 933.845032,256.404663 931.947510,261.747528 
	C929.128174,269.686035 923.208984,274.040039 914.793152,274.982971 
	C914.228699,275.046204 913.727661,275.675140 913.090454,276.114471 
	C921.758179,290.766113 930.433716,305.318390 938.987122,319.942078 
	C942.659180,326.220123 939.798767,331.170685 932.532837,331.450317 
	C932.366394,331.456726 932.199829,331.463867 932.033325,331.463623 
	C909.645203,331.433929 915.690430,332.822327 904.233215,313.520752 
	C897.763245,302.621002 891.947449,291.334351 885.678406,280.312225 
	C884.875000,278.899689 883.139465,277.099915 881.790833,277.061584 
	C872.017517,276.783722 862.232666,276.912415 851.821411,276.912415 
	C851.821411,280.575684 851.823853,283.854950 851.820923,287.134216 
	C851.809875,299.296722 851.818970,311.459320 851.774841,323.621704 
	C851.755859,328.839264 849.929993,330.764679 844.733704,331.270447 
	C827.242859,332.972900 825.942505,331.800018 825.928223,314.484253 
	C825.916931,300.822876 825.867676,287.161469 825.835571,273.000122 
z"/>
<path fill="#F1F1F3" opacity="1.000000" stroke="none" 
	d="
M1020.416504,278.078766 
	C1025.602051,278.085876 1030.787720,278.092987 1036.548950,278.448547 
	C1043.149780,282.803528 1044.692383,289.527954 1046.929443,295.664825 
	C1048.671021,300.442719 1046.200439,303.252411 1040.975952,303.285614 
	C1031.325806,303.346924 1021.674683,303.356171 1012.024780,303.279022 
	C1009.496399,303.258789 1007.827698,303.588806 1006.799500,306.487976 
	C1004.617859,312.639740 1002.067383,318.687012 999.226440,324.563599 
	C998.301331,326.477112 996.122131,328.884155 994.313843,329.067627 
	C988.548828,329.652496 982.682739,329.459686 976.867188,329.249573 
	C973.005127,329.110077 972.185181,327.186096 973.638611,323.594177 
	C980.056519,307.733459 986.353760,291.824005 992.749939,275.954437 
	C997.205688,264.899261 1001.898071,253.937119 1006.200500,242.823380 
	C1008.726562,236.298447 1010.695679,229.557938 1012.915344,222.914398 
	C1016.367981,213.654160 1017.838196,202.970444 1027.995972,198.038635 
	C1040.085815,192.168808 1052.374268,195.623749 1057.792236,208.466248 
	C1065.472046,226.670120 1072.547485,245.127869 1080.036743,263.413483 
	C1087.074707,280.597382 1094.363159,297.678589 1101.419189,314.855225 
	C1102.646484,317.842896 1103.314453,321.067047 1104.156006,324.204742 
	C1105.294067,328.448090 1103.796265,331.024780 1099.482544,331.277618 
	C1094.343628,331.578827 1089.157471,331.505585 1084.014648,331.204254 
	C1077.252686,330.808044 1076.277710,324.797119 1074.370483,320.149353 
	C1069.893433,309.239655 1065.887939,298.137543 1061.555664,287.166992 
	C1057.813599,277.690918 1053.884033,268.288879 1050.145264,258.187653 
	C1050.306030,256.865021 1050.598145,256.110748 1050.375488,255.567490 
	C1047.334595,248.150635 1044.223755,240.762512 1041.127563,233.368347 
	C1040.391602,231.610733 1039.646240,229.856979 1038.905273,228.101456 
	C1034.137573,236.886139 1030.586670,245.325256 1027.298706,253.865616 
	C1026.444946,256.083405 1026.413452,258.617767 1026.004272,261.006714 
	C1026.004272,261.006714 1026.000000,261.000000 1025.666748,261.102234 
	C1023.467346,265.085358 1021.366211,268.878052 1019.858948,272.893707 
	C1019.313232,274.347473 1020.189209,276.334869 1020.416504,278.078766 
z"/>
<path fill="#F0EFF3" opacity="1.000000" stroke="none" 
	d="
M176.125336,470.894623 
	C174.398849,459.394623 176.084900,448.430054 182.121521,438.463287 
	C188.011246,428.739014 195.902802,421.047791 207.271378,418.096283 
	C213.558044,416.464111 220.008408,415.287262 226.458542,414.541626 
	C229.236664,414.220490 232.201279,415.512543 235.578003,416.454651 
	C236.641403,417.387054 237.114410,418.225403 237.788269,418.443695 
	C254.075607,423.719666 264.423096,434.982422 268.831390,451.137512 
	C270.234009,456.277679 272.322754,456.867401 276.605164,456.859222 
	C323.258087,456.769989 369.912506,456.633423 416.562805,456.992035 
	C422.848358,457.040344 425.693604,454.412811 428.407013,449.665558 
	C436.430634,435.627838 444.753601,421.761505 452.828003,407.752380 
	C454.957214,404.058258 457.592041,402.570190 462.047882,402.605408 
	C490.204620,402.827881 518.363953,402.719330 546.522400,402.721741 
	C551.520935,402.722168 556.519531,402.713318 561.517883,402.740692 
	C565.169739,402.760681 566.942444,404.707184 567.107422,408.285217 
	C567.323425,412.968384 564.890503,415.018646 558.842041,415.020935 
	C528.684204,415.032257 498.526093,415.075256 468.368988,414.925568 
	C464.592865,414.906830 462.337433,415.951202 460.396576,419.342285 
	C451.767822,434.418793 442.785370,449.292328 434.063507,464.316315 
	C432.098114,467.701813 429.582764,469.221497 425.628357,469.214966 
	C375.810059,469.132935 325.991516,469.181641 276.173279,469.075317 
	C271.994781,469.066406 269.134888,469.372650 268.989960,474.677979 
	C268.918060,477.309875 267.291504,479.969452 266.099823,482.489563 
	C256.036346,503.771088 233.023636,515.017090 208.786102,507.075836 
	C195.388687,502.686218 185.652863,493.879730 180.567902,480.365356 
	C179.343735,477.111847 177.619553,474.046509 176.125336,470.894623 
M193.546432,474.872284 
	C194.060806,476.226532 194.431061,477.658386 195.111740,478.923126 
	C202.337677,492.349518 219.228928,500.068756 235.607361,494.094971 
	C250.301926,488.735382 260.625610,468.991333 255.839371,454.430573 
	C250.814606,439.144104 232.702240,426.601013 215.705200,431.318298 
	C200.116592,435.644684 184.796951,455.500000 193.546432,474.872284 
z"/>
<path fill="#F2F2F5" opacity="1.000000" stroke="none" 
	d="
M248.025452,119.937485 
	C248.744766,119.987312 249.464066,120.037140 250.652802,120.513718 
	C255.116150,120.695023 259.110077,120.449570 263.104034,120.204132 
	C277.394073,120.175064 291.684143,120.145996 306.549194,120.538231 
	C310.780487,121.263336 314.436646,121.776405 318.092987,121.777237 
	C319.766357,121.777618 321.439911,120.769829 323.113403,120.219269 
	C324.120148,120.185577 325.126923,120.151886 326.598694,120.514313 
	C331.148987,122.407593 334.992828,123.497154 337.815155,127.814674 
	C347.066040,141.966263 357.112122,155.595566 366.665253,169.553848 
	C368.870941,172.776642 371.315948,174.166092 375.292145,174.141937 
	C400.119720,173.991180 424.948669,174.077835 449.777191,174.079132 
	C486.103516,174.081039 522.429871,174.068832 558.756165,174.084732 
	C564.413391,174.087204 567.188599,176.047821 566.888184,179.862823 
	C566.498596,184.809158 563.099121,185.195084 559.046204,185.181351 
	C531.052002,185.086563 503.057159,185.155746 475.062592,185.130356 
	C437.737610,185.096497 400.412598,185.024673 362.972168,184.648834 
	C361.894897,183.221375 360.818176,182.193771 359.988831,180.994995 
	C349.727478,166.162338 339.566132,151.259644 329.168518,136.523499 
	C328.132111,135.054657 325.745605,133.818771 323.932831,133.743195 
	C316.487488,133.432755 309.021667,133.614655 301.563385,133.612442 
	C285.271118,133.607605 268.978516,133.553833 252.687057,133.664978 
	C250.982346,133.676605 248.015884,132.189636 248.000443,136.002563 
	C248.000443,136.002563 247.969803,135.999634 247.588760,136.012375 
	C245.777878,139.368042 244.366852,142.719177 242.915176,146.052582 
	C233.046204,168.714233 209.006775,178.601807 186.228683,171.515900 
	C181.286179,169.978363 176.723083,167.221191 171.740753,164.796356 
	C165.114777,158.746490 159.302414,152.415939 156.787064,143.953125 
	C154.841721,137.408112 153.596924,130.654892 152.040680,123.994240 
	C152.040680,123.994240 152.086411,123.534294 152.480530,123.208862 
	C154.215378,119.111580 155.645920,115.368896 156.882187,111.563103 
	C164.543304,87.978767 195.335175,72.785095 220.791656,86.163712 
	C233.775635,92.987427 242.530731,103.052376 245.236206,117.858635 
	C245.388779,118.693596 247.060684,119.250938 248.025452,119.937485 
M167.999863,134.918289 
	C168.576309,136.065338 169.335587,137.157104 169.701630,138.367783 
	C174.775452,155.149719 194.258835,164.413055 211.300812,158.414078 
	C228.409561,152.391586 240.874420,130.230865 228.910278,111.030251 
	C224.686234,104.251305 219.115540,99.146385 211.612335,96.979233 
	C206.396637,95.472763 201.274918,94.039284 195.096344,95.383720 
	C184.191376,97.756615 177.230148,103.789917 171.456680,112.684952 
	C167.046402,119.479767 167.771225,126.704872 167.999863,134.918289 
z"/>
<path fill="#F1F1F4" opacity="1.000000" stroke="none" 
	d="
M1311.795898,289.085815 
	C1311.207275,295.780182 1318.475586,300.088837 1325.559937,300.078400 
	C1341.210083,300.055328 1356.860107,300.080170 1372.510254,300.089417 
	C1375.673584,300.091309 1378.837891,300.165894 1382.000000,300.108002 
	C1385.983521,300.035065 1387.757812,302.326447 1387.837158,305.903107 
	C1387.977295,312.225647 1388.126709,318.580536 1387.595703,324.864746 
	C1387.443848,326.660431 1385.141968,329.483887 1383.513184,329.725311 
	C1377.975708,330.546051 1372.296387,330.662933 1366.674805,330.616089 
	C1349.712280,330.474762 1332.737427,330.461670 1315.794067,329.759308 
	C1302.227905,329.196991 1291.773438,319.756226 1287.973877,306.370941 
	C1284.239868,293.216858 1284.077759,279.855743 1284.566650,266.440765 
	C1284.912354,256.952667 1289.742065,250.208008 1301.362915,250.169876 
	C1327.335327,250.084656 1353.308594,250.187088 1379.280029,250.002838 
	C1383.522827,249.972748 1386.211426,251.343536 1386.636597,255.513947 
	C1387.329102,262.303497 1388.788696,269.260345 1383.789795,275.568665 
	C1360.704712,275.570831 1338.397461,275.526489 1316.091797,275.687073 
	C1314.095947,275.701447 1310.442383,276.966614 1310.404541,277.783173 
	C1310.229980,281.537689 1307.868042,285.813080 1311.795898,289.085815 
z"/>
<path fill="#F4F4F7" opacity="1.000000" stroke="none" 
	d="
M563.916931,259.867920 
	C551.430847,259.929474 538.944763,260.041565 526.458679,260.043823 
	C471.329926,260.053680 416.201202,260.031921 360.244690,260.094421 
	C358.534912,262.527130 357.636353,264.881012 356.773438,267.247894 
	C347.334778,293.136932 321.465942,305.776398 296.587433,296.465912 
	C271.916473,287.233063 260.681183,264.137207 268.909515,237.877792 
	C277.009644,212.027725 306.352722,199.789139 331.502014,210.840454 
	C344.078369,216.366882 352.074036,226.153839 356.680450,238.737656 
	C359.600464,246.714615 359.254944,246.822357 367.780548,246.820496 
	C430.408051,246.806824 493.035583,246.800674 555.663086,246.793686 
	C567.498474,246.792358 569.156677,249.422241 563.916931,259.867920 
M310.343414,219.682938 
	C307.136047,220.148453 303.715424,220.050949 300.756348,221.171890 
	C283.076477,227.869232 273.769714,246.778061 280.197327,264.832153 
	C284.489105,276.887177 296.957825,288.232147 315.201538,286.807556 
	C330.851959,285.585480 345.061493,273.284729 346.626465,257.679901 
	C347.735687,246.619232 344.629486,236.637115 336.348846,228.942322 
	C330.149323,223.181427 323.445648,217.891830 313.227264,220.012726 
	C312.497314,220.015900 311.767365,220.019089 310.343414,219.682938 
z"/>
<path fill="#EAE9EE" opacity="1.000000" stroke="none" 
	d="
M632.918579,431.845886 
	C620.466187,432.298584 620.276367,433.801178 620.341187,419.910278 
	C620.414185,404.260345 620.367126,388.609833 620.381348,372.959595 
	C620.382690,371.462555 620.322205,369.950134 620.503967,368.471100 
	C621.639648,359.227539 623.057922,358.000885 632.388489,358.010925 
	C633.720337,358.012360 635.052246,358.024750 636.384094,358.034882 
	C642.947876,358.084839 645.361450,360.184662 647.570068,366.214874 
	C651.571106,377.138458 655.922485,387.934814 660.237549,398.740356 
	C660.596985,399.640411 661.789185,400.207947 663.029297,401.319855 
	C666.834290,392.089539 670.471619,383.387299 674.003235,374.642365 
	C675.534973,370.849457 676.620361,366.862976 678.331787,363.160034 
	C679.770203,360.048035 682.175110,357.809998 686.061890,357.999237 
	C688.221130,358.104340 690.404480,358.180603 692.551331,357.986237 
	C700.057312,357.306702 703.457520,360.660828 703.613770,368.792419 
	C703.981506,387.932037 703.727844,407.083130 703.796387,426.229340 
	C703.811096,430.343964 702.277832,432.495331 697.866333,432.096863 
	C695.754761,431.906158 693.608032,432.104492 691.262695,431.541260 
	C691.048218,413.002411 691.048218,395.048859 691.048218,377.095337 
	C690.378906,376.970673 689.709656,376.845978 689.040344,376.721283 
	C688.359009,377.679993 687.463928,378.551025 687.029175,379.610840 
	C682.322144,391.086090 677.604004,402.558228 673.071594,414.102905 
	C671.094116,419.139862 666.459106,423.620087 661.844666,423.246216 
	C656.916626,422.846954 653.398010,419.895477 651.539429,415.132233 
	C648.679504,407.802612 645.775391,400.489502 642.811951,393.201172 
	C640.583191,387.719757 638.231934,382.288116 635.935242,376.834320 
	C635.468750,376.927917 635.002319,377.021515 634.535828,377.115143 
	C633.996765,395.358704 633.457703,413.602295 632.918579,431.845886 
z"/>
<path fill="#EEEDEF" opacity="1.000000" stroke="none" 
	d="
M794.431396,234.001541 
	C794.436279,263.963867 794.440613,293.425903 794.451843,322.887939 
	C794.454407,329.589966 792.801819,331.306976 786.062927,331.440613 
	C782.902466,331.503296 779.737915,331.562622 776.579224,331.476135 
	C770.691589,331.314880 768.511169,329.136749 768.291382,323.309937 
	C768.222412,321.481506 768.276306,319.648376 768.276306,317.817413 
	C768.276917,281.031433 768.278564,244.245453 768.278320,207.459473 
	C768.278259,198.017395 769.843018,196.454483 779.177917,196.359116 
	C795.655029,196.190796 794.557007,196.821930 794.442322,211.529648 
	C794.385254,218.853104 794.432983,226.177353 794.431396,234.001541 
z"/>
<path fill="#ECECEF" opacity="1.000000" stroke="none" 
	d="
M1298.035645,196.218933 
	C1325.334595,196.219803 1352.141602,196.218277 1378.948608,196.219986 
	C1386.453613,196.220474 1387.918701,197.743591 1387.855347,205.396393 
	C1387.825073,209.059067 1387.752563,212.724136 1387.846069,216.384369 
	C1387.950195,220.463089 1385.846069,222.539154 1382.023804,223.044678 
	C1380.053467,223.305267 1378.043823,223.363129 1376.052368,223.357651 
	C1349.249390,223.283859 1322.446411,223.181030 1295.643433,223.089340 
	C1285.983643,223.056290 1284.351440,221.448944 1284.338013,211.921921 
	C1284.336792,211.089401 1284.353394,210.256424 1284.331543,209.424454 
	C1284.049072,198.652405 1284.878540,195.331879 1298.035645,196.218933 
z"/>
<path fill="#E7E6EC" opacity="1.000000" stroke="none" 
	d="
M947.305542,398.035950 
	C944.737000,391.730225 942.313660,385.790222 939.890320,379.850220 
	C939.489258,379.946533 939.088196,380.042847 938.687134,380.139191 
	C936.041016,387.161163 933.394958,394.183105 930.626648,401.529510 
	C932.100830,401.830566 932.707825,402.037903 933.323547,402.067810 
	C942.547852,402.516449 942.909424,402.783600 945.606567,411.352936 
	C946.851379,415.307831 945.157104,417.744629 940.915405,417.916626 
	C938.088928,418.031219 935.255005,417.968567 932.424377,417.969116 
	C923.649353,417.970795 922.273987,418.743225 920.083679,427.257935 
	C919.153870,430.872711 917.562012,432.091949 913.980957,432.125732 
	C900.920227,432.248749 900.842468,432.307617 905.652832,420.148346 
	C912.713745,402.300385 920.074951,384.569000 926.937073,366.645874 
	C929.284912,360.513367 933.406128,357.416534 939.545715,356.980011 
	C945.942871,356.525208 949.512756,360.730560 951.658081,366.017975 
	C957.254028,379.810059 962.548828,393.723969 968.048096,407.555756 
	C970.579407,413.922607 973.220032,420.249695 975.979126,426.520905 
	C977.692993,430.416504 976.645203,431.984161 972.392517,432.087463 
	C961.175842,432.359863 961.113770,432.465088 956.632080,421.585236 
	C953.466492,413.900696 950.503967,406.132507 947.305542,398.035950 
z"/>
<path fill="#777488" opacity="1.000000" stroke="none" 
	d="
M176.014404,471.326294 
	C177.619553,474.046509 179.343735,477.111847 180.567902,480.365356 
	C185.652863,493.879730 195.388687,502.686218 208.786102,507.075836 
	C233.023636,515.017090 256.036346,503.771088 266.099823,482.489563 
	C267.291504,479.969452 268.918060,477.309875 268.989960,474.677979 
	C269.134888,469.372650 271.994781,469.066406 276.173279,469.075317 
	C325.991516,469.181641 375.810059,469.132935 425.628357,469.214966 
	C429.582764,469.221497 432.098114,467.701813 434.063507,464.316315 
	C442.785370,449.292328 451.767822,434.418793 460.396576,419.342285 
	C462.337433,415.951202 464.592865,414.906830 468.368988,414.925568 
	C498.526093,415.075256 528.684204,415.032257 558.842041,415.020935 
	C564.890503,415.018646 567.323425,412.968384 567.107422,408.285217 
	C566.942444,404.707184 565.169739,402.760681 561.517883,402.740692 
	C556.519531,402.713318 551.520935,402.722168 546.522400,402.721741 
	C518.363953,402.719330 490.204620,402.827881 462.047882,402.605408 
	C457.592041,402.570190 454.957214,404.058258 452.828003,407.752380 
	C444.753601,421.761505 436.430634,435.627838 428.407013,449.665558 
	C425.693604,454.412811 422.848358,457.040344 416.562805,456.992035 
	C369.912506,456.633423 323.258087,456.769989 276.605164,456.859222 
	C272.322754,456.867401 270.234009,456.277679 268.831390,451.137512 
	C264.423096,434.982422 254.075607,423.719666 237.788269,418.443695 
	C237.114410,418.225403 236.641403,417.387054 235.976929,416.496582 
	C239.878586,417.452087 244.194855,418.170044 247.818237,420.153687 
	C258.615631,426.064819 266.188904,434.911255 270.023529,446.766846 
	C270.775513,449.091766 271.672119,451.369934 272.592987,453.921753 
	C273.775543,453.987640 275.081818,454.123810 276.388123,454.123993 
	C323.541809,454.130768 370.695587,454.094299 417.849091,454.183197 
	C421.331757,454.189758 423.211121,453.440063 425.128479,450.015228 
	C433.447449,435.155609 442.414673,420.660248 451.030701,405.964783 
	C453.542419,401.680847 456.760223,399.895264 461.947449,399.930511 
	C494.936981,400.154785 527.928894,400.070068 560.919861,399.992706 
	C565.540833,399.981873 568.476257,402.012970 569.508179,406.340576 
	C570.631897,411.052917 568.494507,415.493744 564.533142,417.031677 
	C563.057983,417.604401 561.301697,417.607300 559.673462,417.608246 
	C530.182251,417.625549 500.685242,417.908844 471.204468,417.348450 
	C464.773285,417.226257 462.537598,420.832977 460.132660,424.822540 
	C452.158508,438.050781 444.303284,451.359192 436.791687,464.853546 
	C433.723511,470.365448 429.550690,471.940369 423.557953,471.919952 
	C375.071686,471.754608 326.584656,471.815491 278.097839,471.807373 
	C276.283630,471.807068 274.469421,471.807343 272.633972,471.807343 
	C268.683075,484.185822 263.599609,495.475861 252.496094,502.848206 
	C237.719040,512.659668 222.282745,515.234375 205.415833,508.329773 
	C193.626404,503.503723 184.613632,496.004242 179.458572,484.353546 
	C177.710983,480.403900 177.057144,475.970367 176.014404,471.326294 
z"/>
<path fill="#FAFAFB" opacity="1.000000" stroke="none" 
	d="
M834.947144,431.857300 
	C823.953247,431.915100 812.959412,431.972900 801.407104,431.637207 
	C798.886963,428.578552 795.296814,425.956177 795.225403,423.241272 
	C794.731628,404.464600 794.839966,385.666382 795.168152,366.882263 
	C795.202637,364.907745 797.534912,362.216339 799.493042,361.227020 
	C801.860779,360.030792 804.972107,359.942596 807.750916,359.990631 
	C816.700928,360.145325 825.690125,361.285583 834.581665,360.728271 
	C844.953552,360.078125 852.534241,371.343262 852.844238,379.350952 
	C853.249023,389.810272 853.151367,400.302307 852.881836,410.770233 
	C852.667419,419.098663 846.034973,427.993408 837.657104,429.148773 
	C836.648438,429.287872 835.845459,430.918152 834.947144,431.857300 
M815.561951,371.035248 
	C814.397400,371.033844 813.232910,371.030365 812.068359,371.031433 
	C805.128235,371.037811 805.108459,371.058594 805.112793,377.990326 
	C805.120056,389.635468 805.345459,401.286499 805.030579,412.922943 
	C804.895630,417.907806 806.758240,419.345367 811.425842,419.083252 
	C816.898560,418.775940 822.401489,419.018799 827.891357,419.004761 
	C838.743591,418.976990 842.402832,415.589478 842.820862,404.631104 
	C843.074341,397.986786 843.696411,391.186951 842.641418,384.702911 
	C841.132874,375.431122 840.776733,371.037384 828.520569,371.038055 
	C824.527954,371.038300 820.535339,371.035339 815.561951,371.035248 
z"/>
<path fill="#9392A2" opacity="1.000000" stroke="none" 
	d="
M692.999878,196.081436 
	C701.238770,196.686127 709.053955,196.806595 716.698303,198.011551 
	C727.494934,199.713409 733.735596,207.388443 735.649597,217.299850 
	C737.544312,227.111282 738.155884,237.415771 737.505249,247.384872 
	C737.090454,253.739655 734.302002,260.462189 730.896484,265.982513 
	C725.082397,275.407074 714.875122,277.329315 704.677612,277.563293 
	C689.528198,277.910919 674.365356,277.674652 659.208252,277.686584 
	C657.582336,277.687866 655.956421,277.686768 653.740234,277.686768 
	C653.740234,285.395355 653.742493,292.667114 653.739624,299.938873 
	C653.736572,307.600708 653.837524,315.264648 653.690430,322.923767 
	C653.559509,329.740814 651.335449,331.810028 644.665039,331.833313 
	C641.500305,331.844360 638.335571,331.852234 635.170898,331.834656 
	C627.436096,331.791748 626.023865,330.402069 625.987671,322.413391 
	C625.931152,309.921143 625.966980,297.428436 625.965942,284.935944 
	C625.965210,276.274475 626.119690,267.609528 625.920837,258.952667 
	C625.768616,252.323975 628.074036,249.770905 634.901794,249.848312 
	C656.885681,250.097641 678.875305,249.819382 700.860229,250.018967 
	C705.371216,250.059891 708.623779,248.271271 709.268127,244.335815 
	C710.106323,239.216110 710.215759,233.748108 709.322266,228.661285 
	C708.801086,225.694748 705.607544,223.849091 701.704407,223.875229 
	C679.552551,224.023590 657.398987,223.923630 635.245972,223.892609 
	C627.819580,223.882217 626.048828,222.148422 625.985291,214.854065 
	C625.953430,211.190109 625.899475,207.522812 626.012939,203.861908 
	C626.189575,198.159561 628.238098,196.118942 634.034790,196.102463 
	C653.523010,196.047043 673.011536,196.081345 692.999878,196.081436 
M628.845825,216.121216 
	C628.721619,220.579056 631.531372,221.132767 635.125183,221.124451 
	C657.455383,221.072708 679.787781,221.281052 702.114746,221.012711 
	C707.644897,220.946243 710.478149,223.699951 712.391785,228.013992 
	C713.235229,229.915512 713.530151,232.280304 713.347595,234.371338 
	C712.964233,238.761398 712.994263,243.527313 711.200439,247.365921 
	C709.098572,251.863647 704.044250,252.784241 699.195068,252.784302 
	C677.697876,252.784576 656.199646,252.903961 634.704468,252.697098 
	C630.077209,252.652573 628.685303,254.176285 628.730347,258.701996 
	C628.921082,277.864227 628.801758,297.029480 628.810913,316.193634 
	C628.817932,330.805237 627.924377,329.010895 641.717224,329.054779 
	C649.808899,329.080505 651.203735,327.136047 651.005859,318.980377 
	C650.691467,306.023010 651.129761,293.047699 650.838684,280.089233 
	C650.727478,275.136810 652.870728,274.383728 657.110779,274.428436 
	C672.606689,274.591797 688.109131,274.616333 703.601929,274.319427 
	C708.688293,274.221924 714.007324,273.737732 718.774780,272.119202 
	C728.801147,268.715363 733.570068,259.862305 734.639832,250.517838 
	C735.840210,240.032043 736.570496,229.195679 733.325562,218.540695 
	C729.879089,207.223846 721.420410,198.584396 707.245728,198.891998 
	C698.917603,199.072693 690.582031,198.905670 682.249817,198.904831 
	C666.418579,198.903229 650.586426,199.000412 634.756592,198.850601 
	C630.470215,198.810028 628.598816,200.385574 628.802002,204.690887 
	C628.966858,208.182678 628.838318,211.688324 628.845825,216.121216 
z"/>
<path fill="#F0EFF3" opacity="1.000000" stroke="none" 
	d="
M742.962402,414.063171 
	C753.583374,414.063171 764.204346,414.063171 775.417236,414.063171 
	C775.417236,419.976898 775.417236,425.519684 775.417236,431.934326 
	C763.090271,431.934326 750.548767,431.934326 737.440186,431.550293 
	C728.969055,428.726410 723.938232,423.277954 720.801331,415.836945 
	C720.750549,415.716583 720.521912,415.671143 720.369141,415.193787 
	C720.477966,408.483398 720.693787,402.169678 720.676331,395.856598 
	C720.663696,391.295197 723.024475,388.872314 727.276062,388.817871 
	C741.742981,388.632538 756.214905,388.609772 770.679993,388.836548 
	C772.352844,388.862762 775.003906,390.516388 775.475220,391.973755 
	C777.430542,398.019806 774.857117,401.104828 768.480408,401.119934 
	C761.661560,401.136108 754.842590,401.121307 748.023682,401.120575 
	C743.412598,401.120087 738.801514,401.120483 734.321777,401.120483 
	C732.374573,412.205292 735.111755,416.036194 742.962402,414.063171 
z"/>
<path fill="#9593A4" opacity="1.000000" stroke="none" 
	d="
M564.291443,259.957397 
	C569.156677,249.422241 567.498474,246.792358 555.663086,246.793686 
	C493.035583,246.800674 430.408051,246.806824 367.780548,246.820496 
	C359.254944,246.822357 359.600464,246.714615 356.680450,238.737656 
	C352.074036,226.153839 344.078369,216.366882 331.502014,210.840454 
	C306.352722,199.789139 277.009644,212.027725 268.909515,237.877792 
	C260.681183,264.137207 271.916473,287.233063 296.587433,296.465912 
	C321.465942,305.776398 347.334778,293.136932 356.773438,267.247894 
	C357.636353,264.881012 358.534912,262.527130 359.788574,260.145508 
	C360.343231,270.497040 355.246796,278.667999 348.680359,285.896698 
	C334.569000,301.431213 316.706329,305.190552 297.263306,299.501556 
	C282.378113,295.146210 271.525391,284.917419 266.406372,270.059052 
	C259.969971,251.376846 263.418274,233.715317 276.571564,219.214172 
	C283.816986,211.226257 293.729797,205.851730 305.027527,204.431396 
	C328.263397,201.510239 347.314545,212.691315 356.914520,232.476227 
	C358.669220,236.092529 359.627106,240.095459 361.196472,244.622742 
	C366.908844,244.622742 373.376526,244.623093 379.844238,244.622696 
	C439.955841,244.619034 500.067474,244.614761 560.179077,244.612289 
	C565.589722,244.612076 568.955017,246.913086 569.235474,251.560150 
	C569.445862,255.047302 569.746643,259.154083 564.291443,259.957397 
z"/>
<path fill="#9593A4" opacity="1.000000" stroke="none" 
	d="
M1181.910522,224.016922 
	C1169.424805,223.985291 1156.938965,223.975739 1144.453369,223.913467 
	C1137.341797,223.877991 1135.807861,222.290588 1135.811890,215.119141 
	C1135.813843,211.458008 1136.044067,207.788437 1135.864502,204.137756 
	C1135.586182,198.479294 1138.349854,195.947388 1144.265259,195.986221 
	C1173.400513,196.177536 1202.537720,196.083496 1231.674194,196.091415 
	C1236.835571,196.092819 1241.996826,196.109283 1247.158203,196.101959 
	C1251.800415,196.095383 1254.111572,198.336548 1254.055664,203.038467 
	C1254.002319,207.532944 1254.131104,212.030258 1254.038086,216.523407 
	C1253.914185,222.513351 1252.594849,223.837296 1246.616699,223.868774 
	C1235.794922,223.925751 1224.972534,223.870789 1214.150391,223.887878 
	C1212.683105,223.890198 1211.216064,224.038620 1209.157227,224.151978 
	C1209.157227,231.014816 1209.163452,237.611908 1209.156128,244.209000 
	C1209.130737,267.517700 1209.152954,290.826691 1209.024780,314.134857 
	C1209.001221,318.411041 1208.853760,322.813141 1207.784668,326.901154 
	C1207.284302,328.814667 1204.594482,331.236237 1202.651367,331.481689 
	C1197.572021,332.123169 1192.349854,331.859467 1187.198975,331.632324 
	C1183.555664,331.471680 1181.379028,329.504700 1182.197021,325.364746 
	C1183.311157,325.300354 1183.967041,325.392029 1184.658691,325.871216 
	C1185.629761,327.175201 1186.521851,328.825409 1187.507690,328.883575 
	C1192.295288,329.165863 1197.132324,329.286926 1201.895142,328.847748 
	C1203.136841,328.733215 1204.174194,326.402222 1205.567749,324.761658 
	C1205.933105,321.783234 1206.121338,319.132477 1206.126099,316.481415 
	C1206.182495,285.027344 1206.211548,253.573227 1206.605225,221.928543 
	C1208.751587,221.513412 1210.539795,221.103821 1212.329956,221.094482 
	C1223.482544,221.036209 1234.636841,220.966690 1245.787354,221.125214 
	C1249.569824,221.178986 1251.398438,219.920120 1251.236328,215.985229 
	C1251.031006,211.002457 1251.009521,206.012131 1250.932129,200.688873 
	C1250.295288,199.937149 1249.635010,199.521591 1248.511230,199.042450 
	C1212.372925,199.020935 1176.698120,199.062988 1140.687988,199.072250 
	C1139.928955,199.699341 1139.505005,200.359222 1138.985840,201.478394 
	C1138.828247,206.094559 1138.871216,210.256439 1138.673828,214.406906 
	C1138.479980,218.487991 1139.955688,220.646912 1144.338623,220.662766 
	C1155.310669,220.702423 1166.282837,220.878067 1177.252930,221.103043 
	C1179.170166,221.142365 1181.077271,221.687698 1182.908569,222.279999 
	C1182.522217,223.046097 1182.216431,223.531509 1181.910522,224.016922 
z"/>
<path fill="#EEEEF1" opacity="1.000000" stroke="none" 
	d="
M871.612427,367.471558 
	C871.795959,364.241791 871.993469,361.448975 872.213379,358.340576 
	C876.655945,358.340576 880.920898,358.340576 886.056702,358.340576 
	C886.056702,382.710388 886.056702,407.136566 886.056702,431.761475 
	C881.272278,431.761475 876.839417,431.761475 871.626465,431.761475 
	C871.626465,410.275391 871.626465,389.091949 871.612427,367.471558 
z"/>
<path fill="#A09EAD" opacity="1.000000" stroke="none" 
	d="
M363.087616,184.969147 
	C400.412598,185.024673 437.737610,185.096497 475.062592,185.130356 
	C503.057159,185.155746 531.052002,185.086563 559.046204,185.181351 
	C563.099121,185.195084 566.498596,184.809158 566.888184,179.862823 
	C567.188599,176.047821 564.413391,174.087204 558.756165,174.084732 
	C522.429871,174.068832 486.103516,174.081039 449.777191,174.079132 
	C424.948669,174.077835 400.119720,173.991180 375.292145,174.141937 
	C371.315948,174.166092 368.870941,172.776642 366.665253,169.553848 
	C357.112122,155.595566 347.066040,141.966263 337.815155,127.814674 
	C334.992828,123.497154 331.148987,122.407593 326.974365,120.556953 
	C332.924866,118.563538 336.590271,121.126144 339.917542,126.227325 
	C347.654907,138.089706 355.998291,149.556534 364.073669,161.199203 
	C364.816040,162.269516 365.341644,163.488586 366.063995,164.574707 
	C369.015594,169.012863 371.979248,172.120865 378.486115,172.082291 
	C438.936768,171.723892 499.390350,171.864899 559.843079,171.848785 
	C567.045349,171.846863 569.205994,173.604980 569.204895,179.618729 
	C569.203979,184.676086 565.365112,187.978317 559.412720,187.978806 
	C495.962189,187.983963 432.511688,187.993805 369.061218,187.928391 
	C366.827271,187.926086 364.594086,187.154572 362.299316,186.163177 
	C362.521240,185.379562 362.804443,185.174362 363.087616,184.969147 
z"/>
<path fill="#E2E1E8" opacity="1.000000" stroke="none" 
	d="
M718.503784,366.911743 
	C718.615295,358.516083 719.165466,357.930847 726.761230,357.927826 
	C741.391541,357.922028 756.022827,358.024719 770.651611,357.877380 
	C774.264221,357.841003 777.069275,359.049255 777.208740,362.560455 
	C777.530945,370.671143 775.640991,373.633392 770.674683,373.659851 
	C755.047546,373.743225 739.418579,373.539062 723.791931,373.656281 
	C719.075134,373.691681 719.290955,370.252716 718.503784,366.911743 
z"/>
<path fill="#777488" opacity="1.000000" stroke="none" 
	d="
M1012.554688,222.981949 
	C1010.695679,229.557938 1008.726562,236.298447 1006.200500,242.823380 
	C1001.898071,253.937119 997.205688,264.899261 992.749939,275.954437 
	C986.353760,291.824005 980.056519,307.733459 973.638611,323.594177 
	C972.185181,327.186096 973.005127,329.110077 976.867188,329.249573 
	C982.682739,329.459686 988.548828,329.652496 994.313843,329.067627 
	C996.122131,328.884155 998.301331,326.477112 999.226440,324.563599 
	C1002.067383,318.687012 1004.617859,312.639740 1006.799500,306.487976 
	C1007.827698,303.588806 1009.496399,303.258789 1012.024780,303.279022 
	C1021.674683,303.356171 1031.325806,303.346924 1040.975952,303.285614 
	C1046.200439,303.252411 1048.671021,300.442719 1046.929443,295.664825 
	C1044.692383,289.527954 1043.149780,282.803528 1037.007812,278.466705 
	C1043.153320,276.503174 1043.692627,281.910339 1045.545044,285.405853 
	C1047.058472,288.261841 1047.933472,291.449921 1049.192871,294.448151 
	C1051.609985,300.202637 1048.197388,305.721680 1041.943237,305.814972 
	C1033.620117,305.939178 1025.294067,305.903290 1016.969543,305.872040 
	C1008.587280,305.840576 1008.720764,305.852539 1005.944885,313.832062 
	C1004.299744,318.561157 1002.136414,323.108887 1000.239990,327.752075 
	C998.964478,330.875214 996.604126,332.023193 993.334717,331.965820 
	C988.008667,331.872345 982.678040,332.029205 977.352600,331.919830 
	C972.084595,331.811615 969.632080,328.363678 971.549133,323.305054 
	C975.859497,311.930908 980.433899,300.656738 984.908447,289.344849 
	C990.664612,274.792786 996.428650,260.243774 1002.188599,245.693146 
	C1005.009583,238.566940 1007.809204,231.432129 1010.687622,224.329239 
	C1010.906921,223.788055 1011.678894,223.470825 1012.554688,222.981949 
z"/>
<path fill="#B6B4C5" opacity="1.000000" stroke="none" 
	d="
M835.354004,431.947174 
	C835.845459,430.918152 836.648438,429.287872 837.657104,429.148773 
	C846.034973,427.993408 852.667419,419.098663 852.881836,410.770233 
	C853.151367,400.302307 853.249023,389.810272 852.844238,379.350952 
	C852.534241,371.343262 844.953552,360.078125 834.581665,360.728271 
	C825.690125,361.285583 816.700928,360.145325 807.750916,359.990631 
	C804.972107,359.942596 801.860779,360.030792 799.493042,361.227020 
	C797.534912,362.216339 795.202637,364.907745 795.168152,366.882263 
	C794.839966,385.666382 794.731628,404.464600 795.225403,423.241272 
	C795.296814,425.956177 798.886963,428.578552 800.945312,431.570953 
	C795.050293,431.916718 792.083679,429.355957 792.055359,423.534119 
	C791.963013,404.541840 791.983704,385.548523 792.070129,366.556122 
	C792.094482,361.199585 795.321106,357.923981 800.628723,357.868927 
	C811.789246,357.753143 822.961914,357.540863 834.111023,357.916901 
	C846.806946,358.345123 854.843994,366.353058 855.652466,379.758423 
	C856.262878,389.881042 856.869080,400.215363 855.525513,410.192627 
	C853.717529,423.618103 848.955627,430.702576 835.354004,431.947174 
z"/>
<path fill="#AAA8B7" opacity="1.000000" stroke="none" 
	d="
M633.335815,431.893616 
	C633.457703,413.602295 633.996765,395.358704 634.535828,377.115143 
	C635.002319,377.021515 635.468750,376.927917 635.935242,376.834320 
	C638.231934,382.288116 640.583191,387.719757 642.811951,393.201172 
	C645.775391,400.489502 648.679504,407.802612 651.539429,415.132233 
	C653.398010,419.895477 656.916626,422.846954 661.844666,423.246216 
	C666.459106,423.620087 671.094116,419.139862 673.071594,414.102905 
	C677.604004,402.558228 682.322144,391.086090 687.029175,379.610840 
	C687.463928,378.551025 688.359009,377.679993 689.040344,376.721283 
	C689.709656,376.845978 690.378906,376.970673 691.048218,377.095337 
	C691.048218,395.048859 691.048218,413.002411 691.055908,431.416931 
	C686.832581,431.886200 688.080933,428.544861 688.054688,426.447876 
	C687.898254,413.955322 687.965088,401.460022 687.931824,388.965729 
	C687.929810,388.195496 687.714478,387.425812 687.364258,385.104279 
	C683.108215,395.611053 679.012024,404.604401 675.821716,413.908417 
	C672.519714,423.538269 665.523071,427.018005 656.478882,423.721100 
	C653.876526,422.772461 651.335510,419.813507 650.145569,417.158173 
	C645.512268,406.818939 641.433105,396.231445 636.202515,385.815125 
	C636.202515,393.645325 636.216797,401.475555 636.197937,409.305725 
	C636.183105,415.468658 636.267456,421.637939 635.984619,427.789551 
	C635.919617,429.204681 634.531982,430.558990 633.335815,431.893616 
z"/>
<path fill="#A09EAD" opacity="1.000000" stroke="none" 
	d="
M248.053238,119.508163 
	C247.060684,119.250938 245.388779,118.693596 245.236206,117.858635 
	C242.530731,103.052376 233.775635,92.987427 220.791656,86.163712 
	C195.335175,72.785095 164.543304,87.978767 156.882187,111.563103 
	C155.645920,115.368896 154.215378,119.111580 152.520187,122.981186 
	C151.663727,109.367714 158.574005,98.788307 168.219650,90.599388 
	C183.047134,78.011230 200.635010,74.923309 218.722748,82.378967 
	C234.835022,89.020355 245.331757,101.217712 248.053238,119.508163 
z"/>
<path fill="#777488" opacity="1.000000" stroke="none" 
	d="
M742.718018,413.795502 
	C735.111755,416.036194 732.374573,412.205292 734.321777,401.120483 
	C738.801514,401.120483 743.412598,401.120087 748.023682,401.120575 
	C754.842590,401.121307 761.661560,401.136108 768.480408,401.119934 
	C774.857117,401.104828 777.430542,398.019806 775.475220,391.973755 
	C775.003906,390.516388 772.352844,388.862762 770.679993,388.836548 
	C756.214905,388.609772 741.742981,388.632538 727.276062,388.817871 
	C723.024475,388.872314 720.663696,391.295197 720.676331,395.856598 
	C720.693787,402.169678 720.477966,408.483398 720.273926,415.536072 
	C720.128418,416.504822 720.070923,416.734375 720.013489,416.963898 
	C719.400085,409.773804 718.432129,402.590546 718.292419,395.391266 
	C718.191772,390.201813 722.630188,386.151642 727.873230,386.102966 
	C742.509277,385.967163 757.147522,386.090271 771.784363,386.013824 
	C775.177185,385.996094 776.348877,387.340118 776.389954,390.772430 
	C776.570557,405.859497 776.595642,403.679138 764.123047,403.734009 
	C756.305542,403.768372 748.486633,403.673584 740.670837,403.794098 
	C738.642883,403.825378 735.444824,402.585907 735.602295,406.532166 
	C735.709534,409.220032 735.436035,412.487122 739.811096,412.367126 
	C740.687378,412.343140 741.585571,413.120148 742.718018,413.795502 
z"/>
<path fill="#8A8999" opacity="1.000000" stroke="none" 
	d="
M362.972168,184.648834 
	C362.804443,185.174362 362.521240,185.379562 362.105774,185.816467 
	C360.341614,184.401550 358.434448,182.948044 357.121735,181.077377 
	C347.553314,167.441879 338.002350,153.791245 328.700195,139.974136 
	C326.740051,137.062607 324.771698,135.841980 321.231750,135.864532 
	C297.134277,136.018036 273.035370,135.953537 248.468689,135.980988 
	C248.015884,132.189636 250.982346,133.676605 252.687057,133.664978 
	C268.978516,133.553833 285.271118,133.607605 301.563385,133.612442 
	C309.021667,133.614655 316.487488,133.432755 323.932831,133.743195 
	C325.745605,133.818771 328.132111,135.054657 329.168518,136.523499 
	C339.566132,151.259644 349.727478,166.162338 359.988831,180.994995 
	C360.818176,182.193771 361.894897,183.221375 362.972168,184.648834 
z"/>
<path fill="#E9E8F3" opacity="1.000000" stroke="none" 
	d="
M1181.948242,224.483063 
	C1182.216431,223.531509 1182.522217,223.046097 1183.305054,222.370041 
	C1184.186401,223.848068 1184.939697,225.515961 1184.943481,227.185562 
	C1185.013672,258.298248 1185.000610,289.411102 1184.979004,320.523956 
	C1184.977905,322.177246 1184.746826,323.830444 1184.622803,325.483673 
	C1183.967041,325.392029 1183.311157,325.300354 1182.350342,325.076996 
	C1182.025513,291.613251 1182.005737,258.281219 1181.948242,224.483063 
z"/>
<path fill="#A09EAD" opacity="1.000000" stroke="none" 
	d="
M171.985245,165.025772 
	C176.723083,167.221191 181.286179,169.978363 186.228683,171.515900 
	C209.006775,178.601807 233.046204,168.714233 242.915176,146.052582 
	C244.366852,142.719177 245.777878,139.368042 247.584412,135.997620 
	C246.807953,148.974808 240.505493,158.900253 229.715622,166.001846 
	C225.685944,168.654068 221.652832,171.682999 217.167694,173.192352 
	C201.435562,178.486633 186.309891,177.434814 172.302185,166.640640 
	C172.007599,165.793625 171.996429,165.409698 171.985245,165.025772 
z"/>
<path fill="#2B1E3E" opacity="1.000000" stroke="none" 
	d="
M239.167221,384.257904 
	C278.998383,383.882263 319.052155,383.834869 359.572083,383.876190 
	C358.322296,384.654205 356.608185,385.939728 354.890106,385.945038 
	C318.110901,386.058929 281.331207,386.048889 244.551804,385.966553 
	C242.830124,385.962708 241.110443,385.066681 239.167221,384.257904 
z"/>
<path fill="#777488" opacity="1.000000" stroke="none" 
	d="
M1026.340210,260.877258 
	C1026.413452,258.617767 1026.444946,256.083405 1027.298706,253.865616 
	C1030.586670,245.325256 1034.137573,236.886139 1038.905273,228.101456 
	C1039.646240,229.856979 1040.391602,231.610733 1041.127563,233.368347 
	C1044.223755,240.762512 1047.334595,248.150635 1050.375488,255.567490 
	C1050.598145,256.110748 1050.306030,256.865021 1050.062988,257.805298 
	C1048.427979,255.231003 1046.871094,252.422775 1045.562988,249.503021 
	C1043.329468,244.517670 1041.252075,239.462387 1038.541748,233.105804 
	C1034.364624,242.836838 1030.520386,251.792343 1026.340210,260.877258 
z"/>
<path fill="#44425B" opacity="1.000000" stroke="none" 
	d="
M1312.059326,288.855042 
	C1307.868042,285.813080 1310.229980,281.537689 1310.404541,277.783173 
	C1310.442383,276.966614 1314.095947,275.701447 1316.091797,275.687073 
	C1338.397461,275.526489 1360.704712,275.570831 1383.461182,275.685730 
	C1382.185181,276.532623 1380.463867,277.868378 1378.732910,277.880951 
	C1358.518188,278.027740 1338.302124,277.975464 1318.086304,277.975769 
	C1316.436890,277.975800 1314.787354,277.975800 1312.322632,277.975800 
	C1312.322632,281.626221 1312.322632,285.125244 1312.059326,288.855042 
z"/>
<path fill="#777488" opacity="1.000000" stroke="none" 
	d="
M171.740753,164.796356 
	C171.996429,165.409698 172.007599,165.793625 172.003281,166.465668 
	C171.453140,166.928802 170.628815,167.419907 170.425446,167.233505 
	C160.256790,157.913223 151.959488,147.560165 151.811813,132.808365 
	C151.784210,130.049225 151.659119,127.291084 151.809845,124.263359 
	C153.596924,130.654892 154.841721,137.408112 156.787064,143.953125 
	C159.302414,152.415939 165.114777,158.746490 171.740753,164.796356 
z"/>
<path fill="#9392A2" opacity="1.000000" stroke="none" 
	d="
M720.030273,417.361298 
	C720.070923,416.734375 720.128418,416.504822 720.281067,415.932983 
	C720.521912,415.671143 720.750549,415.716583 720.801331,415.836945 
	C723.938232,423.277954 728.969055,428.726410 736.978271,431.510742 
	C727.831848,432.026947 722.208679,427.374115 720.030273,417.361298 
z"/>
<path fill="#777488" opacity="1.000000" stroke="none" 
	d="
M1020.409790,277.609131 
	C1020.189209,276.334869 1019.313232,274.347473 1019.858948,272.893707 
	C1021.366211,268.878052 1023.467346,265.085358 1025.669067,261.103394 
	C1024.137329,266.381378 1022.270203,271.760437 1020.409790,277.609131 
z"/>
<path fill="#A09EAD" opacity="1.000000" stroke="none" 
	d="
M322.662384,120.057510 
	C321.439911,120.769829 319.766357,121.777618 318.092987,121.777237 
	C314.436646,121.776405 310.780487,121.263336 307.009338,120.581856 
	C312.000061,120.101379 317.105713,119.998573 322.662384,120.057510 
z"/>
<path fill="#A09EAD" opacity="1.000000" stroke="none" 
	d="
M262.655457,120.053726 
	C259.110077,120.449570 255.116150,120.695023 251.010544,120.565216 
	C254.668213,120.094414 258.437561,119.998863 262.655457,120.053726 
z"/>
<path fill="#060508" opacity="1.000000" stroke="none" 
	d="
M124.246979,294.493469 
	C139.309570,303.447174 144.808090,315.204041 141.655029,331.288605 
	C139.537430,342.091095 132.074417,350.123444 121.081909,354.094910 
	C102.486671,360.813171 85.514915,350.751526 78.586037,334.329041 
	C74.292023,324.151581 79.557159,306.532562 88.076393,299.333099 
	C97.095360,291.711273 107.117874,290.400604 118.055801,291.975494 
	C120.094208,292.269012 122.006355,293.439362 124.246979,294.493469 
z"/>
<path fill="#050506" opacity="1.000000" stroke="none" 
	d="
M1444.145508,286.998505 
	C1444.145508,265.739136 1444.145508,244.979553 1444.145508,223.521637 
	C1448.273560,223.521637 1451.883911,223.512558 1455.494263,223.523300 
	C1467.310181,223.558487 1479.142944,224.001953 1490.936768,223.511780 
	C1500.136353,223.129456 1505.638794,231.473526 1505.803711,238.369049 
	C1506.209595,255.332062 1506.385620,272.326080 1505.782471,289.276611 
	C1505.495605,297.338165 1500.156738,304.565216 1490.512085,304.390198 
	C1476.038818,304.127533 1461.556030,304.390808 1447.077271,304.401917 
	C1446.281128,304.402527 1445.484741,304.142517 1444.145630,303.909302 
	C1444.145630,298.390533 1444.145630,292.944427 1444.145508,286.998505 
z"/>
<path fill="#060608" opacity="1.000000" stroke="none" 
	d="
M193.249680,474.594635 
	C184.796951,455.500000 200.116592,435.644684 215.705200,431.318298 
	C232.702240,426.601013 250.814606,439.144104 255.839371,454.430573 
	C260.625610,468.991333 250.301926,488.735382 235.607361,494.094971 
	C219.228928,500.068756 202.337677,492.349518 195.111740,478.923126 
	C194.431061,477.658386 194.060806,476.226532 193.249680,474.594635 
z"/>
<path fill="#060608" opacity="1.000000" stroke="none" 
	d="
M167.958466,134.474426 
	C167.771225,126.704872 167.046402,119.479767 171.456680,112.684952 
	C177.230148,103.789917 184.191376,97.756615 195.096344,95.383720 
	C201.274918,94.039284 206.396637,95.472763 211.612335,96.979233 
	C219.115540,99.146385 224.686234,104.251305 228.910278,111.030251 
	C240.874420,130.230865 228.409561,152.391586 211.300812,158.414078 
	C194.258835,164.413055 174.775452,155.149719 169.701630,138.367783 
	C169.335587,137.157104 168.576309,136.065338 167.958466,134.474426 
z"/>
<path fill="#777488" opacity="1.000000" stroke="none" 
	d="
M313.957245,220.023529 
	C323.445648,217.891830 330.149323,223.181427 336.348846,228.942322 
	C344.629486,236.637115 347.735687,246.619232 346.626465,257.679901 
	C345.061493,273.284729 330.851959,285.585480 315.201538,286.807556 
	C296.957825,288.232147 284.489105,276.887177 280.197327,264.832153 
	C273.769714,246.778061 283.076477,227.869232 300.756348,221.171890 
	C303.715424,220.050949 307.136047,220.148453 310.599854,220.084763 
	C310.856262,220.486588 310.967285,220.972290 310.585358,221.055405 
	C303.901642,221.990860 298.383362,224.380981 293.190979,228.230087 
	C281.474091,236.915771 277.936401,252.405640 282.781586,264.605408 
	C287.374969,276.171173 298.740692,284.877747 314.357727,284.763062 
	C331.735870,284.635468 347.551361,265.326904 343.856720,247.774933 
	C342.587982,241.747589 339.991882,236.090408 335.282806,231.305328 
	C328.459625,224.372009 320.266541,221.802963 311.417938,221.167175 
	C312.491425,220.878708 313.224335,220.451111 313.957245,220.023529 
z"/>
<path fill="#060508" opacity="1.000000" stroke="none" 
	d="
M313.592255,220.018127 
	C313.224335,220.451111 312.491425,220.878708 311.388763,221.156494 
	C311.019012,221.006714 310.967285,220.972290 310.967285,220.972290 
	C310.967285,220.972290 310.856262,220.486588 310.946838,220.254425 
	C311.767365,220.019089 312.497314,220.015900 313.592255,220.018127 
z"/>
<path fill="#AAA8B7" opacity="1.000000" stroke="none" 
	d="
M816.052368,371.034546 
	C820.535339,371.035339 824.527954,371.038300 828.520569,371.038055 
	C840.776733,371.037384 841.132874,375.431122 842.641418,384.702911 
	C843.696411,391.186951 843.074341,397.986786 842.820862,404.631104 
	C842.402832,415.589478 838.743591,418.976990 827.891357,419.004761 
	C822.401489,419.018799 816.898560,418.775940 811.425842,419.083252 
	C806.758240,419.345367 804.895630,417.907806 805.030579,412.922943 
	C805.345459,401.286499 805.120056,389.635468 805.112793,377.990326 
	C805.108459,371.058594 805.128235,371.037811 812.068359,371.031433 
	C813.232910,371.030365 814.397400,371.033844 816.052368,371.034546 
M811.645264,416.177765 
	C818.469055,416.148041 825.293091,416.139618 832.116638,416.079773 
	C835.629272,416.048950 838.271851,414.486908 838.490723,410.824615 
	C839.080444,400.958160 839.731140,391.065643 839.512695,381.202148 
	C839.460144,378.826752 836.289185,374.680664 834.279541,374.507172 
	C825.623779,373.759827 816.866516,374.187805 808.089294,374.187805 
	C808.089294,387.380066 808.020935,400.025787 808.201904,412.667938 
	C808.218750,413.848206 809.812744,415.005890 811.645264,416.177765 
M838.902283,409.513641 
	C839.086365,409.574188 839.270508,409.634735 839.454590,409.695312 
	C839.388794,409.500916 839.322998,409.306488 838.902283,409.513641 
z"/>
<path fill="#FCFCFC" opacity="1.000000" stroke="none" 
	d="
M628.842834,215.654526 
	C628.838318,211.688324 628.966858,208.182678 628.802002,204.690887 
	C628.598816,200.385574 630.470215,198.810028 634.756592,198.850601 
	C650.586426,199.000412 666.418579,198.903229 682.249817,198.904831 
	C690.582031,198.905670 698.917603,199.072693 707.245728,198.891998 
	C721.420410,198.584396 729.879089,207.223846 733.325562,218.540695 
	C736.570496,229.195679 735.840210,240.032043 734.639832,250.517838 
	C733.570068,259.862305 728.801147,268.715363 718.774780,272.119202 
	C714.007324,273.737732 708.688293,274.221924 703.601929,274.319427 
	C688.109131,274.616333 672.606689,274.591797 657.110779,274.428436 
	C652.870728,274.383728 650.727478,275.136810 650.838684,280.089233 
	C651.129761,293.047699 650.691467,306.023010 651.005859,318.980377 
	C651.203735,327.136047 649.808899,329.080505 641.717224,329.054779 
	C627.924377,329.010895 628.817932,330.805237 628.810913,316.193634 
	C628.801758,297.029480 628.921082,277.864227 628.730347,258.701996 
	C628.685303,254.176285 630.077209,252.652573 634.704468,252.697098 
	C656.199646,252.903961 677.697876,252.784576 699.195068,252.784302 
	C704.044250,252.784241 709.098572,251.863647 711.200439,247.365921 
	C712.994263,243.527313 712.964233,238.761398 713.347595,234.371338 
	C713.530151,232.280304 713.235229,229.915512 712.391785,228.013992 
	C710.478149,223.699951 707.644897,220.946243 702.114746,221.012711 
	C679.787781,221.281052 657.455383,221.072708 635.125183,221.124451 
	C631.531372,221.132767 628.721619,220.579056 628.842834,215.654526 
z"/>
<path fill="#FEFEFE" opacity="1.000000" stroke="none" 
	d="
M1184.658691,325.871216 
	C1184.746826,323.830444 1184.977905,322.177246 1184.979004,320.523956 
	C1185.000610,289.411102 1185.013672,258.298248 1184.943481,227.185562 
	C1184.939697,225.515961 1184.186401,223.848068 1183.385498,222.089355 
	C1181.077271,221.687698 1179.170166,221.142365 1177.252930,221.103043 
	C1166.282837,220.878067 1155.310669,220.702423 1144.338623,220.662766 
	C1139.955688,220.646912 1138.479980,218.487991 1138.673828,214.406906 
	C1138.871216,210.256439 1138.828247,206.094559 1139.290039,201.434784 
	C1140.134155,200.322922 1140.578613,199.713974 1141.023193,199.105042 
	C1176.698120,199.062988 1212.372925,199.020935 1248.559570,199.344543 
	C1249.683838,200.148499 1250.296265,200.586777 1250.908691,201.025055 
	C1251.009521,206.012131 1251.031006,211.002457 1251.236328,215.985229 
	C1251.398438,219.920120 1249.569824,221.178986 1245.787354,221.125214 
	C1234.636841,220.966690 1223.482544,221.036209 1212.329956,221.094482 
	C1210.539795,221.103821 1208.751587,221.513412 1206.180176,221.954315 
	C1204.935181,223.787643 1204.072998,225.403610 1204.068848,227.021805 
	C1203.988892,258.045227 1203.989746,289.068970 1204.064941,320.092468 
	C1204.068970,321.759064 1204.873413,323.423706 1205.305420,325.089233 
	C1204.174194,326.402222 1203.136841,328.733215 1201.895142,328.847748 
	C1197.132324,329.286926 1192.295288,329.165863 1187.507690,328.883575 
	C1186.521851,328.825409 1185.629761,327.175201 1184.658691,325.871216 
z"/>
<path fill="#E9E8F3" opacity="1.000000" stroke="none" 
	d="
M1205.567627,324.761688 
	C1204.873413,323.423706 1204.068970,321.759064 1204.064941,320.092468 
	C1203.989746,289.068970 1203.988892,258.045227 1204.068848,227.021805 
	C1204.072998,225.403610 1204.935181,223.787643 1205.822876,222.144867 
	C1206.211548,253.573227 1206.182495,285.027344 1206.126099,316.481415 
	C1206.121338,319.132477 1205.933105,321.783234 1205.567627,324.761688 
z"/>
<path fill="#E9E8F3" opacity="1.000000" stroke="none" 
	d="
M1140.687988,199.072235 
	C1140.578613,199.713974 1140.134155,200.322922 1139.385254,200.975494 
	C1139.505005,200.359222 1139.928955,199.699341 1140.687988,199.072235 
z"/>
<path fill="#E9E8F3" opacity="1.000000" stroke="none" 
	d="
M1250.932129,200.688873 
	C1250.296265,200.586777 1249.683838,200.148499 1249.023071,199.408127 
	C1249.635010,199.521591 1250.295288,199.937149 1250.932129,200.688873 
z"/>
<path fill="#060508" opacity="1.000000" stroke="none" 
	d="
M311.048187,221.017395 
	C320.266541,221.802963 328.459625,224.372009 335.282806,231.305328 
	C339.991882,236.090408 342.587982,241.747589 343.856720,247.774933 
	C347.551361,265.326904 331.735870,284.635468 314.357727,284.763062 
	C298.740692,284.877747 287.374969,276.171173 282.781586,264.605408 
	C277.936401,252.405640 281.474091,236.915771 293.190979,228.230087 
	C298.383362,224.380981 303.901642,221.990860 310.585358,221.055405 
	C310.967285,220.972290 311.019012,221.006714 311.048187,221.017395 
z"/>
<path fill="#020203" opacity="1.000000" stroke="none" 
	d="
M811.159912,416.175903 
	C809.812744,415.005890 808.218750,413.848206 808.201904,412.667938 
	C808.020935,400.025787 808.089294,387.380066 808.089294,374.187805 
	C816.866516,374.187805 825.623779,373.759827 834.279541,374.507172 
	C836.289185,374.680664 839.460144,378.826752 839.512695,381.202148 
	C839.731140,391.065643 839.080444,400.958160 838.490723,410.824615 
	C838.271851,414.486908 835.629272,416.048950 832.116638,416.079773 
	C825.293091,416.139618 818.469055,416.148041 811.159912,416.175903 
z"/>
<path fill="#020203" opacity="1.000000" stroke="none" 
	d="
M839.079773,409.312866 
	C839.322998,409.306488 839.388794,409.500916 839.454590,409.695312 
	C839.270508,409.634735 839.086365,409.574188 839.079773,409.312866 
z"/>
</svg>